<?xml version="1.0" encoding="UTF-8" standalone="no"?>
<!-- Created with Inkscape (http://www.inkscape.org/) -->

<svg
   xmlns:dc="http://purl.org/dc/elements/1.1/"
   xmlns:cc="http://creativecommons.org/ns#"
   xmlns:rdf="http://www.w3.org/1999/02/22-rdf-syntax-ns#"
   xmlns:svg="http://www.w3.org/2000/svg"
   xmlns="http://www.w3.org/2000/svg"
   xmlns:sodipodi="http://sodipodi.sourceforge.net/DTD/sodipodi-0.dtd"
   xmlns:inkscape="http://www.inkscape.org/namespaces/inkscape"
   width="2000"
   height="3000"
   viewBox="0 0 2000 3000"
   version="1.1"
   id="svg8"
   inkscape:version="0.92.5 (2060ec1f9f, 2020-04-08)"
   sodipodi:docname="B.svg">
  <defs
     id="defs2" />
  <sodipodi:namedview
     id="base"
     pagecolor="#ffffff"
     bordercolor="#666666"
     borderopacity="1.0"
     inkscape:pageopacity="0.0"
     inkscape:pageshadow="2"
     inkscape:zoom="0.22"
     inkscape:cx="414.81481"
     inkscape:cy="1261.5392"
     inkscape:document-units="px"
     inkscape:current-layer="layer1"
     showgrid="false"
     units="px"
     showguides="true"
     inkscape:guide-bbox="true"
     inkscape:window-width="1306"
     inkscape:window-height="704"
     inkscape:window-x="60"
     inkscape:window-y="27"
     inkscape:window-maximized="1"
     inkscape:snap-global="false">
    <sodipodi:guide
       position="0,300"
       orientation="0,1"
       id="guide12"
       inkscape:locked="false"
       inkscape:label=""
       inkscape:color="rgb(0,0,255)" />
  </sodipodi:namedview>
  <metadata
     id="metadata5">
    <rdf:RDF>
      <cc:Work
         rdf:about="">
        <dc:format>image/svg+xml</dc:format>
        <dc:type
           rdf:resource="http://purl.org/dc/dcmitype/StillImage" />
        <dc:title />
      </cc:Work>
    </rdf:RDF>
  </metadata>
  <g
     inkscape:label="Layer 1"
     inkscape:groupmode="layer"
     id="layer1"
     transform="translate(0,1967.5833)">
    <path
       inkscape:connector-curvature="0"
       id="path4175"
       d="M 192.89859,653.16731 C 98.848769,607.87951 8.3836585,556.43625 4.5454545,305.823 1.9520591,136.48879 260.63538,-101.95604 179.74834,-235.8028 94.1035,-377.52249 0,-505.77886 0,-643.99273 0,-950.38968 282.38597,-1199.9562 788.98543,-1267.9028 l 355.49837,-47.6805 V -291.58497 732.41667 H 846.95722 c -199.59215,0 -435.9839,25.76014 -654.05863,-79.24936 z M 792.3294,160.18618 c 0,-347.35622 2.66184,-345.62608 -303.98132,-205.958295 C 129.8252,117.58318 197.07049,468.31 586.91347,468.31 c 176.07219,0 205.41593,-44.01718 205.41593,-308.12382 z m 0,-880.35438 c 0,-322.7673 -75.15437,-368.3284 -357.92727,-216.99152 -190.86218,102.14557 -229.12644,398.66371 -60.24127,466.81065 308.43328,124.45538 418.16854,58.89378 418.16854,-249.81913 z"
       style="fill:#000000;stroke-width:88.03553772"
       sodipodi:nodetypes="ssssscscssscsssccs" />
  </g>
</svg>
