<?xml version="1.0" encoding="UTF-8" standalone="no"?>
<!-- Created with Inkscape (http://www.inkscape.org/) -->

<svg
   xmlns:dc="http://purl.org/dc/elements/1.1/"
   xmlns:cc="http://creativecommons.org/ns#"
   xmlns:rdf="http://www.w3.org/1999/02/22-rdf-syntax-ns#"
   xmlns:svg="http://www.w3.org/2000/svg"
   xmlns="http://www.w3.org/2000/svg"
   xmlns:sodipodi="http://sodipodi.sourceforge.net/DTD/sodipodi-0.dtd"
   xmlns:inkscape="http://www.inkscape.org/namespaces/inkscape"
   width="2000"
   height="3000"
   viewBox="0 0 2000 3000"
   version="1.1"
   id="svg8"
   inkscape:version="0.92.5 (2060ec1f9f, 2020-04-08)"
   sodipodi:docname="E.svg">
  <defs
     id="defs2" />
  <sodipodi:namedview
     id="base"
     pagecolor="#ffffff"
     bordercolor="#666666"
     borderopacity="1.0"
     inkscape:pageopacity="0.0"
     inkscape:pageshadow="2"
     inkscape:zoom="0.54"
     inkscape:cx="414.81481"
     inkscape:cy="567.93651"
     inkscape:document-units="px"
     inkscape:current-layer="layer1"
     showgrid="false"
     units="px"
     showguides="true"
     inkscape:guide-bbox="true"
     inkscape:window-width="1306"
     inkscape:window-height="704"
     inkscape:window-x="60"
     inkscape:window-y="27"
     inkscape:window-maximized="1">
    <sodipodi:guide
       position="0,79.374999"
       orientation="0,1"
       id="guide12"
       inkscape:locked="false"
       inkscape:label=""
       inkscape:color="rgb(0,0,255)" />
    <sodipodi:guide
       position="0,185.20833"
       orientation="0,1"
       id="guide14"
       inkscape:locked="false"
       inkscape:label=""
       inkscape:color="rgb(0,0,255)" />
    <sodipodi:guide
       position="0,257.96875"
       orientation="0,1"
       id="guide16"
       inkscape:locked="false"
       inkscape:label=""
       inkscape:color="rgb(0,0,255)" />
  </sodipodi:namedview>
  <metadata
     id="metadata5">
    <rdf:RDF>
      <cc:Work
         rdf:about="">
        <dc:format>image/svg+xml</dc:format>
        <dc:type
           rdf:resource="http://purl.org/dc/dcmitype/StillImage" />
        <dc:title></dc:title>
      </cc:Work>
    </rdf:RDF>
  </metadata>
  <g
     inkscape:label="Layer 1"
     inkscape:groupmode="layer"
     id="layer1"
     transform="translate(0,1967.5833)">
    <g
       transform="matrix(19.313627,0,0,19.313627,2.093498e-6,-3470.7115)"
       id="layer1-5"
       inkscape:label="Layer 1">
      <path
         style="fill:#000000;stroke-width:4.610394"
         d="m 42.037592,208.72495 c 0,-7.84409 -1.772639,-8.39054 -14.953342,-4.61051 -31.8331002,9.12971 -37.446879,0.93399 -6.946033,-10.14124 15.486707,-5.62308 19.897961,-9.6678 21.043366,-19.29448 l 1.449247,-12.1798 -19.317827,6.81566 c -23.48615832,8.28651 -22.76890588,8.27065 -22.76890588,0.5001 0,-3.55211 9.08001658,-8.85876 20.74677388,-12.12527 18.32348,-5.1303 20.746773,-7.33039 20.746773,-18.8362 v -13.02753 l -19.021234,6.71111 c -23.09360523,8.14798 -22.47231288,8.1302 -22.47231288,0.63776 0,-5.41346 40.89166588,-21.58867 54.57734888,-21.58867 3.759503,0 5.357769,15.81607 5.357769,53.01956 0,49.94594 -0.534603,53.01956 -9.220794,53.01956 -6.036024,0 -9.220777,-3.07362 -9.220777,-8.899 z"
         id="path4603"
         inkscape:connector-curvature="0" />
    </g>
  </g>
</svg>
