<?xml version="1.0" encoding="UTF-8" standalone="no"?>
<!-- Created with Inkscape (http://www.inkscape.org/) -->

<svg
   xmlns:dc="http://purl.org/dc/elements/1.1/"
   xmlns:cc="http://creativecommons.org/ns#"
   xmlns:rdf="http://www.w3.org/1999/02/22-rdf-syntax-ns#"
   xmlns:svg="http://www.w3.org/2000/svg"
   xmlns="http://www.w3.org/2000/svg"
   xmlns:sodipodi="http://sodipodi.sourceforge.net/DTD/sodipodi-0.dtd"
   xmlns:inkscape="http://www.inkscape.org/namespaces/inkscape"
   width="2000"
   height="3000"
   viewBox="0 0 2000 3000"
   version="1.1"
   id="svg8"
   inkscape:version="0.92.5 (2060ec1f9f, 2020-04-08)"
   sodipodi:docname="K.svg">
  <defs
     id="defs2" />
  <sodipodi:namedview
     id="base"
     pagecolor="#ffffff"
     bordercolor="#666666"
     borderopacity="1.0"
     inkscape:pageopacity="0.0"
     inkscape:pageshadow="2"
     inkscape:zoom="0.54"
     inkscape:cx="414.81481"
     inkscape:cy="567.93651"
     inkscape:document-units="px"
     inkscape:current-layer="layer1"
     showgrid="false"
     units="px"
     showguides="true"
     inkscape:guide-bbox="true"
     inkscape:window-width="1306"
     inkscape:window-height="704"
     inkscape:window-x="60"
     inkscape:window-y="27"
     inkscape:window-maximized="1">
    <sodipodi:guide
       position="0,79.374999"
       orientation="0,1"
       id="guide12"
       inkscape:locked="false"
       inkscape:label=""
       inkscape:color="rgb(0,0,255)" />
    <sodipodi:guide
       position="0,185.20833"
       orientation="0,1"
       id="guide14"
       inkscape:locked="false"
       inkscape:label=""
       inkscape:color="rgb(0,0,255)" />
    <sodipodi:guide
       position="0,257.96875"
       orientation="0,1"
       id="guide16"
       inkscape:locked="false"
       inkscape:label=""
       inkscape:color="rgb(0,0,255)" />
  </sodipodi:namedview>
  <metadata
     id="metadata5">
    <rdf:RDF>
      <cc:Work
         rdf:about="">
        <dc:format>image/svg+xml</dc:format>
        <dc:type
           rdf:resource="http://purl.org/dc/dcmitype/StillImage" />
        <dc:title></dc:title>
      </cc:Work>
    </rdf:RDF>
  </metadata>
  <g
     inkscape:label="Layer 1"
     inkscape:groupmode="layer"
     id="layer1"
     transform="translate(0,1967.5833)">
    <path
       inkscape:connector-curvature="0"
       id="path5029"
       d="m 854.82639,348.41667 c 0,-211.20017 -28.80102,-383.85664 -64.00021,-383.681125 -35.19983,0.17408 -189.72823,76.97553 -343.39616,170.666805 C 112.89998,339.36514 1.4921832,349.5996 1.4921832,176.36937 c 0,-71.15933 134.3999168,-193.471358 298.6667868,-271.80476 164.2669,-78.33319 298.66714,-168.76223 298.66714,-200.95335 0,-32.19066 -134.13769,-149.87853 -298.084,-261.52849 C 9.0101367,-756.59096 -95.883737,-974.25015 100.10398,-974.25015 c 54.23689,0 224.47492,96.00023 378.30699,213.33361 153.83209,117.33319 301.45692,213.33323 328.05518,213.33323 26.59819,0 48.36024,-172.80004 48.36024,-384.00002 0,-327.11117 25.2856,-383.99997 170.66701,-383.99997 161.1852,0 170.6666,56.8888 170.6666,1023.99989 0,967.11111 -9.4821,1024.00008 -170.6666,1024.00008 -145.38304,0 -170.66701,-56.88897 -170.66701,-384 z"
       style="fill:#000000;stroke-width:85.33332825" />
  </g>
</svg>
