<?xml version="1.0" encoding="UTF-8" standalone="no"?>
<!-- Created with Inkscape (http://www.inkscape.org/) -->

<svg
   xmlns:dc="http://purl.org/dc/elements/1.1/"
   xmlns:cc="http://creativecommons.org/ns#"
   xmlns:rdf="http://www.w3.org/1999/02/22-rdf-syntax-ns#"
   xmlns:svg="http://www.w3.org/2000/svg"
   xmlns="http://www.w3.org/2000/svg"
   xmlns:sodipodi="http://sodipodi.sourceforge.net/DTD/sodipodi-0.dtd"
   xmlns:inkscape="http://www.inkscape.org/namespaces/inkscape"
   width="2000"
   height="3000"
   viewBox="0 0 2000 3000"
   version="1.1"
   id="svg8"
   inkscape:version="0.92.5 (2060ec1f9f, 2020-04-08)"
   sodipodi:docname="Z.svg">
  <defs
     id="defs2" />
  <sodipodi:namedview
     id="base"
     pagecolor="#ffffff"
     bordercolor="#666666"
     borderopacity="1.0"
     inkscape:pageopacity="0.0"
     inkscape:pageshadow="2"
     inkscape:zoom="0.54"
     inkscape:cx="414.81481"
     inkscape:cy="567.93651"
     inkscape:document-units="px"
     inkscape:current-layer="layer1"
     showgrid="false"
     units="px"
     showguides="true"
     inkscape:guide-bbox="true"
     inkscape:window-width="1306"
     inkscape:window-height="704"
     inkscape:window-x="60"
     inkscape:window-y="27"
     inkscape:window-maximized="1">
    <sodipodi:guide
       position="0,79.374999"
       orientation="0,1"
       id="guide12"
       inkscape:locked="false"
       inkscape:label=""
       inkscape:color="rgb(0,0,255)" />
    <sodipodi:guide
       position="0,185.20833"
       orientation="0,1"
       id="guide14"
       inkscape:locked="false"
       inkscape:label=""
       inkscape:color="rgb(0,0,255)" />
    <sodipodi:guide
       position="0,257.96875"
       orientation="0,1"
       id="guide16"
       inkscape:locked="false"
       inkscape:label=""
       inkscape:color="rgb(0,0,255)" />
  </sodipodi:namedview>
  <metadata
     id="metadata5">
    <rdf:RDF>
      <cc:Work
         rdf:about="">
        <dc:format>image/svg+xml</dc:format>
        <dc:type
           rdf:resource="http://purl.org/dc/dcmitype/StillImage" />
        <dc:title></dc:title>
      </cc:Work>
    </rdf:RDF>
  </metadata>
  <g
     inkscape:label="Layer 1"
     inkscape:groupmode="layer"
     id="layer1"
     transform="translate(0,1967.5833)">
    <path
       inkscape:connector-curvature="0"
       id="path6443"
       d="M 0,642.71 C 0,575.305 109.63254,481.93671 243.62615,435.2249 485.2235,351.00313 487.25229,345.20222 487.25229,-260.96424 v -611.25834 l -243.62614,48.72532 C 58.605328,-786.49377 0,-804.40635 0,-897.93412 c 0,-67.73649 82.226706,-144.99098 182.72191,-171.67868 100.49524,-26.6723 356.30344,-101.9838 568.45999,-167.3354 345.0637,-106.2901 385.7412,-105.581 385.7412,6.7218 0,69.0409 -73.0863,144.6441 -162.41849,168.0046 -145.16588,37.961 -162.41538,110.77122 -162.41538,685.52938 0,626.6909 4.29702,640.74836 169.37046,552.41063 93.15651,-49.85776 189.03241,-70.99002 213.05581,-46.9665 115.3507,115.35377 -82.8068,272.5912 -515.1676,408.78849 C 417.36728,620.06466 157.34183,705.0661 101.51115,726.43153 45.680478,747.79387 0,710.13357 0,642.71927 Z"
       style="fill:#000000;stroke-width:81.20871735" />
  </g>
</svg>
